<?xml version="1.0" encoding="UTF-8"?>
<svg width="107px" height="102px" viewBox="0 0 107 102" version="1.1" xmlns="http://www.w3.org/2000/svg" xmlns:xlink="http://www.w3.org/1999/xlink">
    <title>icon/server</title>
    <defs>
        <filter x="-7.0%" y="-25.7%" width="113.9%" height="151.5%" filterUnits="objectBoundingBox" id="filter-1">
            <feOffset dx="0" dy="2" in="SourceAlpha" result="shadowOffsetOuter1"></feOffset>
            <feGaussianBlur stdDeviation="10" in="shadowOffsetOuter1" result="shadowBlurOuter1"></feGaussianBlur>
            <feColorMatrix values="0 0 0 0 0   0 0 0 0 0   0 0 0 0 0  0 0 0 0.153026661 0" type="matrix" in="shadowBlurOuter1" result="shadowMatrixOuter1"></feColorMatrix>
            <feMerge>
                <feMergeNode in="shadowMatrixOuter1"></feMergeNode>
                <feMergeNode in="SourceGraphic"></feMergeNode>
            </feMerge>
        </filter>
    </defs>
    <g id="Page-2" stroke="none" stroke-width="1" fill="none" fill-rule="evenodd">
        <g id="Homepage-desktop" transform="translate(-1045.000000, -1482.000000)">
            <g id="card-1" filter="url(#filter-1)" transform="translate(1002.000000, 1448.000000)">
                <g id="Group" transform="translate(64.000000, 53.000000)">
                    <path d="M3,22 L62,22 C63.6568542,22 65,23.3431458 65,25 L65,36 C65,37.6568542 63.6568542,39 62,39 L3,39 C1.34314575,39 2.02906125e-16,37.6568542 0,36 L0,25 C-2.02906125e-16,23.3431458 1.34314575,22 3,22 Z" id="Path-8" stroke="#FFFFFF" stroke-width="1.56666667" stroke-linejoin="round"></path>
                    <path d="M3,0 L62,0 C63.6568542,-3.04359188e-16 65,1.34314575 65,3 L65,14 C65,15.6568542 63.6568542,17 62,17 L3,17 C1.34314575,17 2.02906125e-16,15.6568542 0,14 L0,3 C-2.02906125e-16,1.34314575 1.34314575,1.19253761e-15 3,0 Z" id="Path-8-Copy" stroke="#FFFFFF" stroke-width="1.56666667" stroke-linejoin="round"></path>
                    <path d="M3,43 L62,43 C63.6568542,43 65,44.3431458 65,46 L65,57 C65,58.6568542 63.6568542,60 62,60 L3,60 C1.34314575,60 2.02906125e-16,58.6568542 0,57 L0,46 C-2.02906125e-16,44.3431458 1.34314575,43 3,43 Z" id="Path-8-Copy-2" stroke="#FFFFFF" stroke-width="1.56666667" stroke-linejoin="round"></path>
                    <circle id="Oval" fill="#FFFFFF" cx="54" cy="30" r="3"></circle>
                    <circle id="Oval-Copy" fill="#FFFFFF" cx="54" cy="8" r="3"></circle>
                    <circle id="Oval-Copy-2" fill="#FFFFFF" cx="54" cy="51" r="3"></circle>
                    <line x1="51" y1="29.5" x2="34" y2="29.5" id="Path-10" stroke="#FFFFFF" stroke-width="1.56666667" stroke-linejoin="round"></line>
                    <line x1="54" y1="8.5" x2="37" y2="8.5" id="Path-10-Copy" stroke="#FFFFFF" stroke-width="1.56666667" stroke-linejoin="round"></line>
                    <line x1="51" y1="51.5" x2="34" y2="51.5" id="Path-10-Copy-2" stroke="#FFFFFF" stroke-width="1.56666667" stroke-linejoin="round"></line>
                </g>
            </g>
        </g>
    </g>
</svg>