<?xml version="1.0" encoding="UTF-8"?>
<svg width="28px" height="28px" viewBox="0 0 28 28" version="1.1" xmlns="http://www.w3.org/2000/svg" xmlns:xlink="http://www.w3.org/1999/xlink">
    <title>twitter</title>
    <defs>
        <filter id="filter-1">
            <feColorMatrix in="SourceGraphic" type="matrix" values="0 0 0 0 1.000000 0 0 0 0 1.000000 0 0 0 0 1.000000 0 0 0 1.000000 0"></feColorMatrix>
        </filter>
    </defs>
    <g id="Page-2" stroke="none" stroke-width="1" fill="none" fill-rule="evenodd">
        <g id="Homepage-desktop" transform="translate(-1553.000000, -3485.000000)">
            <g id="twitter" transform="translate(-0.052734, 3340.682775)" filter="url(#filter-1)">
                <g transform="translate(1553.052734, 144.317225)">
                    <polygon id="Path" points="-5.18696197e-13 -6.39488462e-14 27.5714286 -6.39488462e-14 27.5714286 27.5714286 -5.18696197e-13 27.5714286"></polygon>
                    <path d="M25.2738095,4.60672619 C24.125,5.16964286 22.9991667,5.39825595 21.827381,5.74404762 C20.5395655,4.29080357 18.630244,4.2103869 16.7955952,4.897375 C14.9609464,5.5843631 13.7592917,7.26392262 13.7857143,9.19047619 L13.7857143,10.3392857 C10.0578274,10.4346369 6.73776786,8.73669643 4.5952381,5.74404762 C4.5952381,5.74404762 -0.209083333,14.2831488 9.19047619,18.3809524 C7.03990476,19.8135179 4.89507738,20.7796667 2.29761905,20.6785714 C6.09788095,22.749875 10.2393393,23.4621369 13.8247738,22.4213155 C17.9375119,21.2265536 21.3173095,18.1442976 22.6143155,13.5272321 C23.0012234,12.1230085 23.1933397,10.672279 23.1852738,9.21575 C23.1829762,8.92969643 24.9199762,6.03125 25.2738095,4.60557738 L25.2738095,4.60672619 Z" id="Path" stroke="#2C3E50" stroke-width="1.72321429" stroke-linecap="round" stroke-linejoin="round"></path>
                </g>
            </g>
        </g>
    </g>
</svg>