<?xml version="1.0" encoding="UTF-8"?>
<svg width="591px" height="491px" viewBox="0 0 591 491" version="1.1" xmlns="http://www.w3.org/2000/svg" xmlns:xlink="http://www.w3.org/1999/xlink">
    <title>illustration</title>
    <g id="Page-2" stroke="none" stroke-width="1" fill="none" fill-rule="evenodd" opacity="0.369095203">
        <g id="Homepage-desktop" transform="translate(-1017.000000, -136.000000)" stroke="#FFFFFF">
            <g id="illustration" transform="translate(1017.068021, 136.496654)">
                <path d="M238.517917,79.6908464 C333.318698,-34.3872786 388.931979,-4.62165361 305.931979,127.515065 C222.931979,259.651784 143.717136,193.768971 238.517917,79.6908464 Z" id="Path-6" opacity="0.483716388" transform="translate(270.906553, 104.823662) rotate(-7.000000) translate(-270.906553, -104.823662) "></path>
                <path d="M64.8785028,167.748865 C121.926742,82.6778245 186.913054,133.802689 132.292565,215.573083 C77.672077,297.343477 7.830264,252.819905 64.8785028,167.748865 Z" id="Path-6-Copy-2" opacity="0.483716388" transform="translate(98.252105, 191.354772) rotate(58.000000) translate(-98.252105, -191.354772) "></path>
                <path d="M26.4812868,266.747844 C55.2085356,220.774636 126.996814,251.54056 87.5105215,305.482129 C48.0242293,359.423697 -2.24596204,312.721053 26.4812868,266.747844 Z" id="Path-6-Copy-4" opacity="0.483716388" transform="translate(58.548212, 287.016536) rotate(58.000000) translate(-58.548212, -287.016536) "></path>
                <path d="M85.287335,350.483965 C111.500777,308.448604 177.007151,336.579264 140.976146,385.900453 C104.945141,435.221643 59.0738928,392.519325 85.287335,350.483965 Z" id="Path-6-Copy-5" opacity="0.483716388" transform="translate(114.548212, 369.016536) rotate(-3.000000) translate(-114.548212, -369.016536) "></path>
                <path d="M374.25568,145.054005 C420.496888,-15.5581727 578.686426,60.5200806 441.669742,192.878224 C304.653059,325.236367 328.014471,305.666183 374.25568,145.054005 Z" id="Path-6-Copy" opacity="0.483716388" transform="translate(417.269991, 167.332904) rotate(39.000000) translate(-417.269991, -167.332904) "></path>
                <path d="M414.25568,265.054005 C460.496888,104.441827 618.686426,180.520081 481.669742,312.878224 C344.653059,445.236367 368.014471,425.666183 414.25568,265.054005 Z" id="Path-6-Copy-3" opacity="0.483716388" transform="translate(457.269991, 287.332904) rotate(72.000000) translate(-457.269991, -287.332904) "></path>
                <polygon id="Path-7" opacity="0.48" transform="translate(392.060886, 392.599050) rotate(10.000000) translate(-392.060886, -392.599050) " points="276.189792 314.757253 507.931979 402.757253 349.931979 470.440846"></polygon>
            </g>
        </g>
    </g>
</svg>