<?xml version="1.0" encoding="UTF-8"?>
<svg width="55px" height="55px" viewBox="0 0 55 55" version="1.1" xmlns="http://www.w3.org/2000/svg" xmlns:xlink="http://www.w3.org/1999/xlink">
    <title>phone-call</title>
    <g id="Page-2" stroke="none" stroke-width="1" fill="none" fill-rule="evenodd">
        <g id="Homepage-desktop" transform="translate(-1074.000000, -1692.000000)" fill="#2244B6" fill-rule="nonzero">
            <g id="phone-call" transform="translate(1074.000000, 1692.000000)">
                <path d="M43.77429,33.9973118 C42.6393058,32.8207885 41.2703043,32.1917563 39.8193967,32.1917563 C38.38019,32.1917563 36.9994876,32.8091398 35.8176999,33.9856631 L32.1202258,37.6550179 C31.8160032,37.4919355 31.5117806,37.3405018 31.2192589,37.1890681 C30.7980277,36.9793907 30.4001982,36.781362 30.060873,36.5716846 C26.5974162,34.3817204 23.4498828,31.5277778 20.4310589,27.8351254 C18.9684504,25.9946237 17.9855775,24.4453405 17.2718246,22.8727599 C18.2312958,21.9991039 19.1205617,21.0905018 19.9864259,20.2168459 C20.3140502,19.890681 20.6416745,19.5528674 20.9692988,19.2267025 C23.426481,16.7804659 23.426481,13.6120072 20.9692988,11.1657706 L17.7749619,7.98566308 C17.412235,7.62455197 17.0378073,7.25179211 16.6867812,6.87903226 C15.9847292,6.15681004 15.2475745,5.41129032 14.4870181,4.71236559 C13.3520339,3.59408602 11.9947333,3 10.5672274,3 C9.13972156,3 7.75901916,3.59408602 6.58893239,4.71236559 C6.57723153,4.72401434 6.57723153,4.72401434 6.56553066,4.73566308 L2.58723563,8.7311828 C1.08952457,10.2222222 0.235361223,12.0394265 0.0481473399,14.1478495 C-0.232673485,17.5492832 0.773601138,20.7177419 1.54585841,22.7912186 C3.44139898,27.8817204 6.27300896,32.5994624 10.4970222,37.6550179 C15.6220023,43.7473118 21.7883596,48.5582437 28.8322819,51.9480287 C31.5234815,53.2177419 35.1156479,54.7204301 39.1290455,54.9767025 C39.3747637,54.9883513 39.6321828,55 39.8662002,55 C42.5691006,55 44.839069,54.0331541 46.6176009,52.1111111 C46.6293017,52.0878136 46.6527035,52.0761649 46.6644043,52.0528674 C47.2728494,51.3189964 47.9749015,50.6550179 48.7120562,49.9444444 C49.2151935,49.4668459 49.7300317,48.9659498 50.233169,48.4417563 C51.3915549,47.2419355 52,45.844086 52,44.4112903 C52,42.9668459 51.379854,41.5806452 50.1980664,40.4157706 L43.77429,33.9973118 Z M47.9632006,46.2634409 C47.9514998,46.2634409 47.9514998,46.2750896 47.9632006,46.2634409 C47.5068668,46.7526882 47.0388321,47.1953405 46.5356948,47.6845878 C45.7751384,48.40681 45.0028811,49.1639785 44.2774273,50.0143369 C43.0956397,51.2724014 41.7032364,51.8664875 39.877901,51.8664875 C39.702388,51.8664875 39.5151741,51.8664875 39.3396611,51.8548387 C35.8645034,51.6335125 32.6350639,50.2822581 30.2129843,49.1290323 C23.5902932,45.937276 17.7749619,41.405914 12.9425036,35.6630824 C8.95250767,30.875448 6.28470983,26.4489247 4.51787881,21.6962366 C3.42969811,18.7956989 3.03186861,16.5358423 3.20738162,14.4041219 C3.3243903,13.0412186 3.85092935,11.9112903 4.82210137,10.9444444 L8.81209726,6.97222222 C9.38543978,6.43637993 9.9938849,6.14516129 10.5906292,6.14516129 C11.3277838,6.14516129 11.9245281,6.58781362 12.2989558,6.96057348 C12.3106567,6.97222222 12.3223576,6.98387097 12.3340584,6.99551971 C13.0478114,7.65949821 13.7264617,8.34677419 14.4402146,9.08064516 C14.8029415,9.45340502 15.1773693,9.82616487 15.5517971,10.2105735 L18.746134,13.390681 C19.9864259,14.625448 19.9864259,15.7670251 18.746134,17.0017921 C18.4068088,17.3396057 18.0791845,17.6774194 17.7398593,18.0035842 C16.7569864,19.0053763 15.820917,19.937276 14.8029415,20.8458781 C14.7795398,20.8691756 14.7561381,20.8808244 14.7444372,20.9041219 C13.7381626,21.905914 13.9253765,22.8844086 14.1359921,23.5483871 C14.1476929,23.5833333 14.1593938,23.6182796 14.1710947,23.6532258 C15.0018563,25.65681 16.1719431,27.5439068 17.9504749,29.7921147 L17.9621758,29.8037634 C21.1916153,33.7643369 24.5965678,36.8512545 28.3525463,39.2159498 C28.8322819,39.5188172 29.3237184,39.7634409 29.7917531,39.9964158 C30.2129843,40.2060932 30.6108138,40.4041219 30.950139,40.6137993 C30.9969424,40.6370968 31.0437459,40.672043 31.0905494,40.6953405 C31.4883789,40.8933692 31.8628067,40.9865591 32.2489353,40.9865591 C33.2201073,40.9865591 33.8285524,40.3808244 34.0274672,40.1827957 L38.0291639,36.1989247 C38.4269934,35.8028674 39.0588403,35.3252688 39.795995,35.3252688 C40.5214488,35.3252688 41.118193,35.7795699 41.4809199,36.1756272 C41.4926208,36.187276 41.4926208,36.187276 41.5043217,36.1989247 L47.9514998,42.6173835 C49.1566891,43.8055556 49.1566891,45.0286738 47.9632006,46.2634409 Z" id="Shape"></path>
                <path d="M29.3229505,13.1886132 C32.442154,13.7124934 35.275629,15.188883 37.5376468,17.4510929 C39.7996646,19.7133028 41.2640236,22.5470184 41.7997646,25.6664868 C41.9307235,26.4523071 42.6093289,27 43.3831771,27 C43.47842,27 43.5617575,26.9880936 43.6570003,26.9761873 C44.5379967,26.8333108 45.1213592,25.9998651 44.9784949,25.1187939 C44.3356057,21.3444752 42.5498021,17.9035349 39.8234754,15.1769766 C37.0971486,12.4504184 33.6565004,10.6644632 29.8825023,10.0215193 C29.0015058,9.8786429 28.1800362,10.4620549 28.0252666,11.3312198 C27.8704969,12.2003846 28.4419541,13.0457368 29.3229505,13.1886132 Z" id="Path"></path>
                <path d="M54.9761838,24.1941696 C53.9463041,18.1515834 51.0996705,12.6530615 46.7255749,8.27739561 C42.3514793,3.90172973 36.8549307,1.05407416 30.8145129,0.0238247842 C29.9697802,-0.126661079 29.1713342,0.452130704 29.0209023,1.29716671 C28.8820422,2.15377855 29.4490545,2.95251121 30.305359,3.10299707 C35.6977625,4.01748809 40.6157271,6.57574777 44.5269554,10.4768044 C48.4381838,14.3894368 50.9839537,19.309167 51.8981165,24.7035064 C52.025405,25.4675116 52.6849908,26 53.4371501,26 C53.5297236,26 53.6107254,25.9884242 53.7032988,25.9768483 C54.5480316,25.8495141 55.1266156,25.0392056 54.9761838,24.1941696 Z" id="Path"></path>
            </g>
        </g>
    </g>
</svg>